<svg width="2027" height="2027" viewBox="0 0 2027 2027" fill="none" xmlns="http://www.w3.org/2000/svg">
<path d="M313.605 688.258V313.637H183.075V231.403H535.506V313.637H404.976V688.258H313.605ZM558.859 688.258V211.823H646.966V395.871C665.241 359.322 699.396 341.048 749.432 341.048C773.798 341.048 795.771 346.704 815.35 358.017C834.93 369.329 850.376 385.428 861.688 406.313C873.001 427.198 878.657 451.998 878.657 480.715V688.258H790.549V502.253C790.549 472.666 783.805 451.346 770.317 438.293C756.829 424.805 739.208 418.061 717.453 418.061C698.743 418.061 682.21 424.805 667.851 438.293C653.928 451.346 646.966 472.666 646.966 502.253V688.258H558.859ZM971.614 320.816C956.821 320.816 944.203 315.812 933.76 305.805C923.753 295.362 918.749 282.962 918.749 268.604C918.749 254.681 923.753 242.715 933.76 232.708C944.203 222.266 956.821 217.044 971.614 217.044C986.842 217.044 999.46 222.266 1009.47 232.708C1019.47 242.715 1024.48 254.681 1024.48 268.604C1024.48 283.397 1019.47 295.798 1009.47 305.805C999.46 315.812 986.842 320.816 971.614 320.816ZM927.886 688.258V348.88H1015.99V688.258H927.886ZM1068.1 688.258V348.88H1154.91V398.481C1172.75 360.192 1207.34 341.048 1258.68 341.048C1283.04 341.048 1305.02 346.704 1324.6 358.017C1344.18 369.329 1359.62 385.428 1370.93 406.313C1382.25 427.198 1387.9 451.998 1387.9 480.715V688.258H1299.79V502.253C1299.79 472.666 1293.05 451.346 1279.56 438.293C1266.07 424.805 1248.45 418.061 1226.7 418.061C1207.99 418.061 1191.46 424.805 1177.1 438.293C1163.17 451.346 1156.21 472.666 1156.21 502.253V688.258H1068.1ZM1437.13 688.258V211.823H1525.24V485.936L1652.51 348.88H1777.82L1617.92 506.821L1778.47 688.258H1661.64L1525.24 527.053V688.258H1437.13ZM205.918 1194.26V737.403H474.157V819.637H297.289V926.671H470.894V1007.6H297.289V1194.26H205.918ZM691.359 1202.74C656.551 1202.74 625.441 1194.69 598.03 1178.59C570.618 1162.5 549.081 1141.18 533.417 1114.63C518.189 1087.66 510.574 1057.85 510.574 1025.22C510.574 992.589 518.189 962.785 533.417 935.808C549.081 908.832 570.618 887.295 598.03 871.196C625.441 855.097 656.551 847.048 691.359 847.048C726.602 847.048 757.711 855.097 784.688 871.196C812.099 887.295 833.419 908.832 848.647 935.808C864.311 962.785 872.143 992.589 872.143 1025.22C872.143 1057.85 864.311 1087.66 848.647 1114.63C833.419 1141.18 812.099 1162.5 784.688 1178.59C757.711 1194.69 726.602 1202.74 691.359 1202.74ZM691.359 1122.47C710.068 1122.47 726.384 1118.12 740.307 1109.41C754.231 1100.28 764.89 1088.31 772.287 1073.52C780.119 1058.72 784.035 1042.63 784.035 1025.22C784.035 1007.38 780.119 991.066 772.287 976.273C764.89 961.479 754.231 949.732 740.307 941.03C726.384 931.892 710.068 927.324 691.359 927.324C672.649 927.324 656.333 931.892 642.41 941.03C628.487 949.732 617.609 961.479 609.777 976.273C602.381 991.066 598.682 1007.38 598.682 1025.22C598.682 1042.63 602.381 1058.72 609.777 1073.52C617.609 1088.31 628.487 1100.28 642.41 1109.41C656.333 1118.12 672.649 1122.47 691.359 1122.47ZM911.599 1194.26V854.88H997.096V919.492C1002.75 895.126 1014.28 876.635 1031.69 864.017C1049.09 850.964 1072.59 845.308 1102.17 847.048V929.934H1089.77C1064.54 929.934 1043.22 937.984 1025.81 954.083C1008.41 970.181 999.707 992.371 999.707 1020.65V1194.26H911.599ZM1280.5 1333.27C1246.12 1333.27 1215.45 1328.49 1188.47 1318.91C1161.93 1309.78 1138.44 1293.24 1117.99 1269.31L1172.81 1204.7C1188.91 1222.97 1205.66 1235.37 1223.06 1241.9C1240.47 1248.43 1259.83 1251.69 1281.15 1251.69C1296.81 1251.69 1311.39 1247.78 1324.88 1239.94C1338.36 1232.11 1349.02 1221.02 1356.86 1206.66C1365.12 1192.73 1369.26 1176.85 1369.26 1159.01V1144C1360.12 1159.67 1347.5 1172.29 1331.4 1181.86C1315.74 1191.43 1294.2 1196.22 1266.79 1196.22C1235.9 1196.22 1207.83 1188.38 1182.6 1172.72C1157.8 1157.06 1138.22 1136.17 1123.86 1110.07C1109.5 1083.52 1102.32 1053.94 1102.32 1021.31C1102.32 988.673 1109.5 959.086 1123.86 932.545C1138.22 906.004 1157.8 885.119 1182.6 869.891C1207.83 854.227 1235.9 846.395 1266.79 846.395C1295.07 846.395 1317.04 851.399 1332.71 861.406C1348.81 871.414 1361.42 884.684 1370.56 901.218V854.88H1457.36V1164.24C1457.36 1199.04 1449.75 1229.07 1434.52 1254.3C1419.73 1279.54 1399.06 1298.9 1372.52 1312.39C1345.98 1326.31 1315.3 1333.27 1280.5 1333.27ZM1281.15 1115.94C1310.3 1115.94 1332.93 1106.8 1349.02 1088.53C1365.12 1070.25 1373.17 1047.85 1373.17 1021.31C1373.17 994.764 1365.12 972.357 1349.02 954.083C1332.93 935.808 1310.3 926.671 1281.15 926.671C1252.43 926.671 1230.02 935.808 1213.93 954.083C1198.26 972.357 1190.43 994.764 1190.43 1021.31C1190.43 1038.27 1193.91 1053.94 1200.87 1068.3C1208.27 1082.65 1218.71 1094.18 1232.2 1102.89C1245.69 1111.59 1262 1115.94 1281.15 1115.94ZM1672.23 1202.74C1637.42 1202.74 1606.75 1194.69 1580.21 1178.59C1553.67 1162.5 1533 1141.18 1518.21 1114.63C1503.85 1087.66 1496.67 1057.85 1496.67 1025.22C1496.67 992.589 1504.28 962.785 1519.51 935.808C1534.74 908.397 1555.41 886.642 1581.51 870.543C1608.05 854.445 1638.29 846.395 1672.23 846.395C1706.17 846.395 1735.97 854.445 1761.64 870.543C1787.75 886.642 1807.98 908.397 1822.34 935.808C1837.13 962.785 1844.53 992.589 1844.53 1025.22C1844.53 1030.01 1844.31 1035.01 1843.88 1040.23C1843.44 1045.45 1842.79 1050.89 1841.92 1056.55H1588.04C1592.82 1076.56 1602.4 1092.88 1616.76 1105.5C1631.55 1118.12 1650.04 1124.42 1672.23 1124.42C1691.38 1124.42 1707.91 1120.07 1721.83 1111.37C1736.19 1102.67 1747.29 1091.79 1755.12 1078.74L1823.65 1130.3C1810.16 1151.62 1789.93 1169.02 1762.95 1182.51C1735.97 1196 1705.73 1202.74 1672.23 1202.74ZM1670.93 922.103C1650.04 922.103 1632.2 928.412 1617.41 941.03C1602.61 953.647 1592.82 970.181 1588.04 990.631H1755.77C1750.98 971.922 1740.98 955.823 1725.75 942.335C1710.95 928.847 1692.68 922.103 1670.93 922.103Z" fill="black"/>
<path d="M427.94 1387.94H486.382V1708.01C486.382 1765.09 474.829 1806.09 451.725 1831.01C429.073 1856.38 391.924 1869.06 340.278 1869.06C295.427 1869.06 260.317 1858.64 234.947 1837.8C209.577 1817.42 194.626 1787.06 190.096 1746.74L254.654 1747.42C257.825 1773.7 265.98 1792.73 279.118 1804.51C292.709 1816.74 312.869 1822.85 339.598 1822.85C370.858 1822.85 393.283 1814.93 406.874 1799.07C420.918 1783.67 427.94 1758.3 427.94 1722.96V1670.63C412.084 1689.66 396.228 1703.25 380.371 1711.41C364.515 1719.11 345.035 1722.96 321.93 1722.96C299.731 1722.96 279.571 1719.11 261.449 1711.41C243.328 1703.25 227.925 1691.93 215.24 1677.43C202.555 1662.48 192.588 1644.58 185.339 1623.74C178.544 1602.9 175.146 1579.57 175.146 1553.75C175.146 1527.47 178.544 1503.46 185.339 1481.72C192.135 1459.97 201.649 1441.62 213.881 1426.67C226.566 1411.27 241.742 1399.49 259.411 1391.34C277.532 1382.73 297.466 1378.42 319.211 1378.42C341.863 1378.42 361.117 1382.28 376.974 1389.98C393.283 1397.23 410.272 1410.36 427.94 1429.39V1387.94ZM330.084 1429.39C300.184 1429.39 276.853 1440.04 260.09 1461.33C243.781 1482.62 235.626 1512.98 235.626 1552.39C235.626 1590.45 243.781 1619.89 260.09 1640.73C276.853 1661.57 300.637 1671.99 331.443 1671.99C362.703 1671.99 387.167 1661.35 404.835 1640.05C422.504 1618.31 431.338 1588.41 431.338 1550.35C431.338 1513.66 422.277 1484.44 404.156 1462.69C386.034 1440.49 361.344 1429.39 330.084 1429.39ZM580.703 1228.24V1713.45H522.261V1228.24H580.703ZM764.991 1378.42C788.549 1378.42 810.295 1382.73 830.228 1391.34C850.162 1399.49 867.151 1411.27 881.195 1426.67C895.239 1441.62 906.112 1459.74 913.813 1481.04C921.968 1501.88 926.045 1524.98 926.045 1550.35C926.045 1576.18 921.968 1599.73 913.813 1621.03C906.112 1641.87 895.239 1659.99 881.195 1675.39C867.151 1690.34 850.162 1702.12 830.228 1710.73C810.295 1718.88 788.549 1722.96 764.991 1722.96C740.98 1722.96 719.008 1718.88 699.074 1710.73C679.594 1702.12 662.831 1690.34 648.787 1675.39C634.743 1659.99 623.644 1641.87 615.489 1621.03C607.787 1599.73 603.936 1576.18 603.936 1550.35C603.936 1524.98 607.787 1501.88 615.489 1481.04C623.644 1459.74 634.743 1441.62 648.787 1426.67C662.831 1411.27 679.594 1399.49 699.074 1391.34C719.008 1382.73 740.98 1378.42 764.991 1378.42ZM764.991 1424.63C733.278 1424.63 708.588 1435.73 690.919 1457.93C673.251 1479.68 664.417 1510.49 664.417 1550.35C664.417 1590.22 673.251 1621.25 690.919 1643.45C708.588 1665.65 733.278 1676.75 764.991 1676.75C796.703 1676.75 821.394 1665.65 839.062 1643.45C856.731 1621.25 865.565 1590.22 865.565 1550.35C865.565 1510.49 856.731 1479.68 839.062 1457.93C821.394 1435.73 796.703 1424.63 764.991 1424.63ZM1006.82 1228.24V1428.03C1015.43 1418.97 1023.59 1411.27 1031.29 1404.93C1039.44 1398.59 1047.6 1393.6 1055.75 1389.98C1064.36 1385.9 1073.19 1382.96 1082.25 1381.14C1091.77 1379.33 1101.96 1378.42 1112.83 1378.42C1135.03 1378.42 1155.19 1382.5 1173.31 1390.66C1191.44 1398.36 1206.84 1409.68 1219.52 1424.63C1232.66 1439.13 1242.63 1457.03 1249.42 1478.32C1256.22 1499.16 1259.62 1522.49 1259.62 1548.31C1259.62 1603.58 1246.48 1646.62 1220.2 1677.43C1194.38 1707.78 1157.91 1722.96 1110.79 1722.96C1088.6 1722.96 1069.57 1719.33 1053.71 1712.09C1038.31 1704.38 1022.68 1691.7 1006.82 1674.03V1713.45H948.381V1228.24H1006.82ZM1103.32 1429.39C1072.06 1429.39 1047.6 1440.26 1029.93 1462.01C1012.26 1483.76 1003.43 1513.88 1003.43 1552.39C1003.43 1589.99 1012.03 1619.44 1029.25 1640.73C1046.92 1661.57 1071.38 1671.99 1102.64 1671.99C1133.9 1671.99 1157.68 1661.57 1173.99 1640.73C1190.76 1619.44 1199.14 1588.86 1199.14 1548.99C1199.14 1510.49 1190.76 1481.04 1173.99 1460.65C1157.68 1439.81 1134.13 1429.39 1103.32 1429.39ZM1341.71 1491.91L1280.55 1488.51C1290.06 1415.12 1331.97 1378.42 1406.26 1378.42C1446.13 1378.42 1477.62 1388.17 1500.72 1407.65C1512.5 1417.61 1520.66 1429.39 1525.19 1442.98C1530.17 1456.57 1532.66 1474.92 1532.66 1498.03V1617.63C1532.66 1629.41 1532.89 1638.92 1533.34 1646.17C1534.25 1652.96 1535.61 1658.4 1537.42 1662.48C1539.68 1666.56 1542.63 1669.27 1546.25 1670.63C1550.33 1671.99 1555.31 1672.67 1561.2 1672.67C1563.47 1672.67 1565.51 1672.67 1567.32 1672.67C1569.13 1672.22 1571.62 1671.54 1574.79 1670.63V1713.45C1567.09 1715.26 1560.75 1716.39 1555.77 1716.84C1551.24 1717.75 1546.03 1718.2 1540.14 1718.2C1523.83 1718.2 1510.92 1715.03 1501.4 1708.69C1492.34 1701.89 1484.87 1690.57 1478.98 1674.71C1461.76 1691.93 1445 1704.38 1428.69 1712.09C1412.83 1719.33 1394.03 1722.96 1372.29 1722.96C1340.12 1722.96 1314.3 1714.58 1294.82 1697.82C1275.34 1681.05 1265.6 1658.63 1265.6 1630.54C1265.6 1599.28 1277.38 1575.27 1300.93 1558.51C1324.49 1541.74 1361.87 1530.87 1413.06 1525.89L1474.22 1519.09V1488.51C1474.22 1468.13 1468.56 1452.5 1457.23 1441.62C1445.9 1430.3 1429.37 1424.63 1407.62 1424.63C1384.97 1424.63 1368.21 1430.07 1357.34 1440.94C1346.92 1451.82 1341.71 1468.81 1341.71 1491.91ZM1474.22 1560.55L1455.87 1563.26C1430.5 1566.89 1409.44 1570.74 1392.67 1574.82C1375.91 1578.44 1362.55 1582.74 1352.58 1587.73C1342.61 1592.71 1335.59 1598.6 1331.51 1605.4C1327.89 1612.19 1326.08 1620.35 1326.08 1629.86C1326.08 1644.36 1331.29 1655.91 1341.71 1664.52C1352.13 1672.67 1366.17 1676.75 1383.84 1676.75C1397.43 1676.75 1410.34 1674.26 1422.57 1669.27C1434.81 1663.84 1444.77 1656.59 1452.47 1647.53C1457 1643 1460.63 1638.47 1463.35 1633.94C1466.07 1628.95 1468.1 1623.52 1469.46 1617.63C1471.27 1611.74 1472.41 1604.94 1472.86 1597.24C1473.77 1589.54 1474.22 1580.48 1474.22 1570.06V1564.62V1562.58V1560.55ZM1645.3 1228.24V1713.45H1586.86V1228.24H1645.3Z" fill="black"/>
<rect x="1700.67" y="1571.65" width="142.227" height="142.227" fill="#ED1B24"/>
<rect x="35.5568" y="35.5568" width="1955.63" height="1955.63" stroke="black" stroke-width="71.1137"/>
</svg>
